<svg width="40" height="41" viewBox="0 0 40 41" fill="none" xmlns="http://www.w3.org/2000/svg">
<path d="M40 20.2598C40 9.21407 31.0457 0.259766 20 0.259766C8.95431 0.259766 0 9.21407 0 20.2598C0 31.3055 8.95431 40.2598 20 40.2598C31.0457 40.2598 40 31.3055 40 20.2598Z" fill="white"/>
<path fill-rule="evenodd" clip-rule="evenodd" d="M17.1767 31.1398H21.6727V20.2584H24.672L25.0693 16.5091H21.6727L21.6773 14.6318C21.6773 13.6544 21.7707 13.1298 23.1733 13.1298H25.048V9.37977H22.048C18.4447 9.37977 17.1767 11.1991 17.1767 14.2578V16.5091H14.9307V20.2591H17.1767V31.1398ZM20 40.2598C8.95468 40.2598 0 31.3051 0 20.2598C0 9.21377 8.95468 0.259766 20 0.259766C31.0453 0.259766 40 9.21377 40 20.2598C40 31.3051 31.0453 40.2598 20 40.2598Z" fill="#1F1F1F"/>
</svg>
