<svg width="40" height="41" viewBox="0 0 40 41" fill="none" xmlns="http://www.w3.org/2000/svg">
<g clip-path="url(#clip0_138_1395)">
<g clip-path="url(#clip1_138_1395)">
<g clip-path="url(#clip2_138_1395)">
<path d="M40 0.259766H0V40.2598H40V0.259766Z" fill="#1F1F1F"/>
<path d="M25.8992 19.36C25.7992 19.26 25.6992 19.26 25.5992 19.26C25.3992 15.76 23.4992 13.76 20.2992 13.76C18.3992 13.76 16.7992 14.56 15.7992 16.06L17.5992 17.26C18.2992 16.16 19.4992 15.86 20.2992 15.86C21.3992 15.86 22.1992 16.16 22.6992 16.76C23.0992 17.16 23.2992 17.76 23.4992 18.56C22.5992 18.36 21.4992 18.36 20.4992 18.46C17.3992 18.66 15.4992 20.46 15.5992 22.86C15.6992 24.16 16.2992 25.16 17.3992 25.86C18.2992 26.46 19.4992 26.76 20.6992 26.66C22.2992 26.56 23.4992 25.96 24.3992 24.86C25.0992 24.06 25.4992 22.96 25.6992 21.56C26.4992 22.06 26.9992 22.66 27.2992 23.36C27.7992 24.56 27.8992 26.66 26.1992 28.26C24.6992 29.76 22.9992 30.36 20.3992 30.36C17.4992 30.36 15.2992 29.36 13.7992 27.56C12.4992 25.86 11.7992 23.36 11.6992 20.26C11.6992 17.06 12.3992 14.66 13.7992 12.96C15.1992 11.16 17.3992 10.16 20.3992 10.16C23.2992 10.16 25.5992 11.16 27.0992 12.96C27.7992 13.86 28.3992 14.96 28.6992 16.36L30.7992 15.76C30.3992 14.16 29.6992 12.76 28.6992 11.56C26.7992 9.15996 23.9992 7.95996 20.3992 7.95996C16.7992 7.95996 13.9992 9.15996 12.1992 11.56C10.4992 13.66 9.69922 16.56 9.69922 20.26C9.69922 23.96 10.5992 26.86 12.1992 28.96C14.0992 31.36 16.7992 32.56 20.3992 32.56C23.5992 32.56 25.8992 31.66 27.6992 29.86C30.0992 27.46 30.0992 24.36 29.2992 22.56C28.4992 21.16 27.3992 20.06 25.8992 19.36ZM20.3992 24.56C19.0992 24.66 17.6992 24.06 17.5992 22.76C17.4992 21.76 18.2992 20.76 20.4992 20.66C20.7992 20.66 20.9992 20.66 21.1992 20.66C21.9992 20.66 22.6992 20.76 23.3992 20.86C23.1992 23.96 21.6992 24.46 20.3992 24.56Z" fill="white"/>
</g>
</g>
</g>
<defs>
<clipPath id="clip0_138_1395">
<rect y="0.259766" width="40" height="40" rx="20" fill="white"/>
</clipPath>
<clipPath id="clip1_138_1395">
<rect width="40" height="40" fill="white" transform="translate(0 0.259766)"/>
</clipPath>
<clipPath id="clip2_138_1395">
<rect width="40" height="40" fill="white" transform="translate(0 0.259766)"/>
</clipPath>
</defs>
</svg>
