<svg width="40" height="41" viewBox="0 0 40 41" fill="none" xmlns="http://www.w3.org/2000/svg">
<path d="M40 20.2598C40 9.21407 31.0457 0.259766 20 0.259766C8.95431 0.259766 0 9.21407 0 20.2598C0 31.3055 8.95431 40.2598 20 40.2598C31.0457 40.2598 40 31.3055 40 20.2598Z" fill="#1F1F1F"/>
<path d="M30.0016 14.1069C29.3622 14.4621 28.5807 14.6752 27.8703 14.7462C28.6518 14.249 29.2201 13.4675 29.5043 12.5439C28.7938 12.9702 28.0124 13.3254 27.0888 13.5385C26.3784 12.757 25.4548 12.2598 24.3892 12.2598C22.329 12.2598 20.624 14.0358 20.624 16.3092C20.624 16.5934 20.624 16.9486 20.695 17.2327C17.5691 17.0906 14.7985 15.4567 12.9514 13.0412C12.5962 13.6096 12.4541 14.32 12.4541 15.1014C12.4541 16.5223 13.0934 17.73 14.088 18.4404C13.4487 18.4404 12.8803 18.2273 12.383 17.9432V18.0142C12.383 19.9324 13.6618 21.5663 15.3668 21.9926C15.0826 22.0636 14.7274 22.1347 14.3722 22.1347C14.1591 22.1347 13.8749 22.1347 13.6618 22.0636C14.1591 23.6976 15.5089 24.8343 17.1429 24.8343C15.8641 25.8999 14.2301 26.5393 12.5251 26.5393C12.241 26.5393 11.9568 26.5393 11.6016 26.4682C13.2355 27.6049 15.2247 28.3154 17.356 28.3154C24.2471 28.3154 28.0124 22.2057 28.0124 16.8775C28.0124 16.7354 28.0124 16.5223 28.0124 16.3802C28.8649 15.6698 29.5043 14.9594 30.0016 14.1069Z" fill="white"/>
</svg>
