<svg width="40" height="41" viewBox="0 0 40 41" fill="none" xmlns="http://www.w3.org/2000/svg">
<mask id="mask0_138_1381" style="mask-type:luminance" maskUnits="userSpaceOnUse" x="0" y="0" width="40" height="41">
<path d="M40 20.2598C40 9.21407 31.0457 0.259766 20 0.259766C8.95431 0.259766 0 9.21407 0 20.2598C0 31.3055 8.95431 40.2598 20 40.2598C31.0457 40.2598 40 31.3055 40 20.2598Z" fill="white"/>
</mask>
<g mask="url(#mask0_138_1381)">
<path d="M40 20.2598C40 9.21407 31.0457 0.259766 20 0.259766C8.95431 0.259766 0 9.21407 0 20.2598C0 31.3055 8.95431 40.2598 20 40.2598C31.0457 40.2598 40 31.3055 40 20.2598Z" fill="white"/>
<path d="M19.8351 23.9992C21.8107 23.9992 23.4123 22.3976 23.4123 20.422C23.4123 18.4463 21.8107 16.8447 19.8351 16.8447C17.8594 16.8447 16.2578 18.4463 16.2578 20.422C16.2578 22.3976 17.8594 23.9992 19.8351 23.9992Z" fill="#1F1F1F"/>
<path d="M24.3067 11.6416H15.3636C14.0628 11.6416 12.9246 12.0481 12.1929 12.7798C11.4612 13.5115 11.0547 14.6497 11.0547 15.9505V24.8936C11.0547 26.1944 11.4612 27.3326 12.2742 28.1457C13.0872 28.8774 14.1441 29.2839 15.4449 29.2839H24.3067C25.6075 29.2839 26.7457 28.8774 27.4774 28.1457C28.2904 27.414 28.697 26.2758 28.697 24.9749V16.0318C28.697 14.731 28.2904 13.6741 27.5587 12.8611C26.7457 12.0481 25.6888 11.6416 24.3067 11.6416ZM19.8352 25.9505C16.7457 25.9505 14.3067 23.4302 14.3067 20.4221C14.3067 17.3326 16.827 14.8936 19.8352 14.8936C22.8433 14.8936 25.4449 17.3326 25.4449 20.4221C25.4449 23.5115 22.9246 25.9505 19.8352 25.9505ZM25.6075 15.9505C24.8758 15.9505 24.3067 15.3814 24.3067 14.6497C24.3067 13.918 24.8758 13.3489 25.6075 13.3489C26.3392 13.3489 26.9083 13.918 26.9083 14.6497C26.9083 15.3814 26.3392 15.9505 25.6075 15.9505Z" fill="#1F1F1F"/>
<path d="M20 0.259766C8.94308 0.259766 0 9.20285 0 20.2598C0 31.3167 8.94308 40.2598 20 40.2598C31.0569 40.2598 40 31.3167 40 20.2598C40.0812 9.20285 31.0569 0.259766 20 0.259766ZM30.6504 24.9752C30.6504 26.8451 30 28.4712 28.8618 29.6094C27.7236 30.7476 26.0976 31.3167 24.309 31.3167H15.4472C13.6585 31.3167 12.0325 30.7476 10.8943 29.6094C9.6748 28.4712 9.10568 26.8451 9.10568 24.9752V16.0321C9.10568 12.2923 11.626 9.69065 15.4472 9.69065H24.3902C26.2602 9.69065 27.8049 10.3411 28.9431 11.4793C30.0813 12.6175 30.6504 14.1622 30.6504 16.0321V24.9752Z" fill="#1F1F1F"/>
</g>
</svg>
