<svg width="40" height="41" viewBox="0 0 40 41" fill="none" xmlns="http://www.w3.org/2000/svg">
<path d="M40 20.2598C40 9.21407 31.0457 0.259766 20 0.259766C8.95431 0.259766 0 9.21407 0 20.2598C0 31.3055 8.95431 40.2598 20 40.2598C31.0457 40.2598 40 31.3055 40 20.2598Z" fill="#1F1F1F"/>
<path d="M15.3992 15.2598H11.1992V29.0598H15.3992V15.2598Z" fill="white"/>
<path d="M25.6026 15.2598C23.2008 15.2598 22.5348 16.047 22.0008 17.0598V15.2598H17.8008V29.0598H22.0008V21.2598C22.0008 20.0598 22.0008 18.8598 24.1008 18.8598C26.2008 18.8598 26.2008 20.0598 26.2008 21.2598V29.0598H30.4008V21.2598C30.4008 17.6598 29.8008 15.2598 25.6026 15.2598Z" fill="white"/>
<path d="M13.2992 14.0594C14.459 14.0594 15.3992 13.1192 15.3992 11.9594C15.3992 10.7996 14.459 9.85938 13.2992 9.85938C12.1394 9.85938 11.1992 10.7996 11.1992 11.9594C11.1992 13.1192 12.1394 14.0594 13.2992 14.0594Z" fill="white"/>
</svg>
